<svg width="100" height="100" viewBox="0 0 100 100" fill="none" xmlns="http://www.w3.org/2000/svg">
<circle cx="50" cy="50" r="50" fill="#DB4437"/>
<path d="M71 50.5145C71 63.0669 62.4617 72 49.8525 72C37.7631 72 28 62.171 28 50C28 37.829 37.7631 28 49.8525 28C55.7385 28 60.6906 30.1734 64.5059 33.7573L58.5582 39.5145C50.7777 31.9565 36.3092 37.6339 36.3092 50C36.3092 57.6734 42.398 63.8919 49.8525 63.8919C58.5053 63.8919 61.7479 57.6468 62.259 54.4089H49.8525V46.8419H70.6564C70.859 47.9685 71 49.0508 71 50.5145Z" fill="white"/>
</svg>
