<svg width="235" height="78" viewBox="0 0 235 78" fill="none" xmlns="http://www.w3.org/2000/svg">
<g clip-path="url(#clip0)">
<path d="M97.8531 55.4321L107.301 23.3927C107.893 21.3868 109.117 19.6262 110.79 18.374C112.464 17.1218 114.497 16.4452 116.587 16.4452L107.139 48.4846C106.548 50.4907 105.324 52.2515 103.65 53.5038C101.977 54.7561 99.9428 55.4326 97.8531 55.4321ZM83.8945 23.3927L76.5837 48.1877C78.6719 48.1863 80.7036 47.509 82.3755 46.2568C84.0475 45.0047 85.2699 43.2449 85.8604 41.2402L93.1712 16.4452C91.0816 16.4452 89.0481 17.1218 87.3745 18.374C85.7009 19.6262 84.4771 21.3868 83.8858 23.3927H83.8945ZM97.4024 16.4452H95.3115L91.8044 28.3406C93.894 28.3407 95.9275 27.664 97.6011 26.4118C99.2747 25.1596 100.499 23.399 101.09 21.3931C101.259 20.8179 101.293 20.211 101.187 19.6206C101.081 19.0303 100.839 18.4728 100.48 17.9924C100.121 17.5121 99.6555 17.1221 99.1197 16.8535C98.5839 16.5849 97.9929 16.4451 97.3937 16.4452H97.4024ZM71.7563 50.1028H73.8414L77.3456 38.2074C75.2565 38.208 73.2237 38.8849 71.5507 40.1371C69.8777 41.3893 68.6543 43.1495 68.0631 45.1549C67.8929 45.7299 67.8592 46.3368 67.9646 46.9272C68.07 47.5175 68.3117 48.0751 68.6703 48.5556C69.0289 49.0361 69.4946 49.4261 70.0304 49.6947C70.5661 49.9633 71.1571 50.1031 71.7563 50.1028ZM87.6808 42.2443L86.1657 47.3524C86.0286 47.8171 86.0018 48.3074 86.0873 48.7843C86.1728 49.2612 86.3683 49.7116 86.6583 50.0996C86.9483 50.4877 87.3247 50.8026 87.7576 51.0194C88.1906 51.2362 88.6681 51.3489 89.1523 51.3486H89.9782C90.627 51.3483 91.2585 51.1382 91.7783 50.7496C92.2982 50.3609 92.6786 49.8145 92.8629 49.1918C93.1018 48.3837 93.149 47.5309 93.0008 46.7013C92.8525 45.8717 92.5128 45.0881 92.0088 44.413C91.5048 43.7379 90.8503 43.1897 90.0975 42.8122C89.3446 42.4348 88.5141 42.2383 87.6721 42.2385L87.6808 42.2443ZM137.467 55.4379L128.012 23.3927C127.421 21.387 126.197 19.6267 124.523 18.3746C122.85 17.1224 120.817 16.4456 118.727 16.4452L128.172 48.4846C128.764 50.4905 129.988 52.251 131.661 53.5033C133.335 54.7555 135.368 55.4321 137.458 55.4321L137.467 55.4379ZM156.689 41.2402L149.378 16.4452H142.131L151.492 48.1877C152.334 48.1892 153.165 47.9938 153.918 47.6172C154.672 47.2406 155.327 46.6932 155.831 46.0185C156.336 45.3438 156.676 44.5605 156.825 43.7309C156.974 42.9014 156.927 42.0485 156.689 41.2402ZM139.999 16.4452H137.917C137.318 16.4451 136.727 16.5849 136.191 16.8535C135.655 17.1221 135.19 17.5121 134.831 17.9924C134.472 18.4728 134.23 19.0303 134.124 19.6206C134.018 20.211 134.052 20.8179 134.221 21.3931C134.497 22.3325 135.07 23.1573 135.853 23.7443C136.636 24.3313 137.587 24.649 138.566 24.65H142.422L139.999 16.4452ZM141.57 46.1881C142.008 47.673 142.914 48.9763 144.153 49.9032C145.392 50.8301 146.898 51.331 148.444 51.3311H150.323L148.136 43.9063C147.993 43.4211 147.696 42.9955 147.291 42.6929C146.886 42.3902 146.394 42.2268 145.888 42.2269H144.53C144.05 42.2268 143.577 42.3386 143.148 42.5536C142.719 42.7686 142.346 43.0808 142.059 43.4653C141.771 43.8499 141.577 44.2962 141.493 44.7689C141.408 45.2416 141.434 45.7275 141.57 46.1881Z" fill="#231F20"/>
<path d="M96.4224 7.03824L95.3115 7.72222L95.0992 7.37587L97.7165 5.77216L97.9288 6.12142L96.8092 6.8054L98.6267 9.80618L98.2457 10.039L96.4224 7.03824Z" fill="#231F20"/>
<path d="M101.605 3.85702L102.017 3.69984L102.634 5.32394L104.745 4.52062L104.126 2.89362L104.539 2.73645L105.932 6.39502L105.519 6.55219L104.891 4.90773L102.782 5.71104L103.41 7.3555L102.997 7.51267L101.605 3.85702Z" fill="#231F20"/>
<path d="M108.979 1.52861L111.759 1.02509L111.829 1.42093L109.485 1.84586L109.721 3.16144L111.82 2.78015L111.893 3.17599L109.794 3.55727L110.038 4.90195L112.411 4.47409L112.469 4.85829L109.663 5.36472L108.979 1.52861Z" fill="#231F20"/>
<path d="M121.295 0.783508L121.705 0.83881L123.741 4.27036L124.151 1.16188L124.578 1.21718L124.063 5.09695L123.714 5.05038L121.635 1.53734L121.213 4.71857L120.786 4.66327L121.295 0.783508Z" fill="#231F20"/>
<path d="M129.059 2.27661L131.741 3.14978L131.616 3.53106L129.35 2.78596L128.931 4.05205L130.967 4.72147L130.839 5.10276L128.803 4.43333L128.376 5.73435L130.665 6.49109L130.54 6.87238L127.829 5.97884L129.059 2.27661Z" fill="#231F20"/>
<path d="M135.582 4.74182L135.998 4.98339L135.317 8.35091L137.894 6.06903L138.208 6.2524L137.478 9.62864L140.095 7.37878L140.497 7.61162L137.298 10.3126L136.975 10.1234L137.65 6.83741L135.117 9.03779L134.797 8.85152L135.582 4.74182Z" fill="#231F20"/>
<path d="M121.565 33.2216C121.48 32.9355 121.305 32.6844 121.067 32.5056C120.828 32.3268 120.538 32.2299 120.239 32.2291H115.086C114.788 32.2303 114.498 32.3275 114.259 32.5062C114.021 32.6849 113.846 32.9357 113.76 33.2216L112.998 35.8091L116.526 41.0306C116.653 41.2179 116.823 41.3713 117.023 41.4773C117.223 41.5832 117.445 41.6387 117.671 41.6387C117.898 41.6387 118.12 41.5832 118.32 41.4773C118.52 41.3713 118.69 41.2179 118.817 41.0306L122.345 35.8091L121.565 33.2216ZM121.324 33.2915L122.022 35.6607H120.568L117.91 32.4794H120.236C120.481 32.4793 120.719 32.5584 120.915 32.7047C121.111 32.851 121.254 33.0569 121.324 33.2915ZM116.758 35.6607L117.657 32.7763L118.556 35.6607H116.758ZM118.576 35.9139L117.657 40.8269L116.738 35.9139H118.576ZM116.494 35.6607H115.057L117.349 32.9189L116.494 35.6607ZM116.494 35.9139L117.369 40.6581L114.993 35.9168L116.494 35.9139ZM118.843 35.9139H120.321L117.945 40.6581L118.843 35.9139ZM118.843 35.6607L117.988 32.9189L120.277 35.6607H118.843ZM114.01 33.2915C114.08 33.0592 114.222 32.8553 114.416 32.7093C114.609 32.5633 114.844 32.4828 115.086 32.4794H117.413L114.755 35.6607H113.315L114.01 33.2915ZM116.744 40.888L113.359 35.9139H114.711L117.442 41.3653C117.296 41.3384 117.156 41.2822 117.033 41.2002C116.909 41.1182 116.803 41.012 116.721 40.888H116.744ZM118.617 40.888C118.534 41.0115 118.428 41.1172 118.304 41.1992C118.18 41.2811 118.041 41.3376 117.895 41.3653L120.612 35.9139H121.967L118.617 40.888Z" fill="#231F20"/>
<path d="M0.674988 67.2634H2.47798L2.49542 75.8205H7.84623V77.4504H0.695344L0.674988 67.2634Z" fill="#231F20"/>
<path d="M20.7667 71.5565C21.2 73.1573 20.9412 74.729 20.1153 75.8642C19.3446 76.9411 18.0622 77.6105 16.361 77.6105C15.0444 77.5936 13.769 77.1487 12.7272 76.3428C11.6854 75.5369 10.9338 74.4137 10.5856 73.1428C10.1552 71.5565 10.3966 69.9703 11.237 68.8352C12.0076 67.7583 13.2726 67.0743 14.9768 67.0743C16.2977 67.0889 17.5779 67.5345 18.6229 68.3435C19.6678 69.1524 20.4205 70.2805 20.7667 71.5565ZM18.4693 74.8309C18.8401 74.2387 19.0488 73.5594 19.0744 72.8611C19.1 72.1627 18.9416 71.4699 18.6152 70.8521C18.2887 70.2343 17.8057 69.7134 17.2146 69.3415C16.6234 68.9696 15.9449 68.7599 15.2472 68.7333C14.7896 68.7194 14.3355 68.8168 13.9238 69.017C13.512 69.2172 13.1549 69.5144 12.883 69.883C12.5095 70.4756 12.2986 71.1562 12.2715 71.8564C12.2445 72.5565 12.4022 73.2514 12.7289 73.8711C13.0556 74.4909 13.5397 75.0135 14.1324 75.3863C14.7251 75.7592 15.4055 75.9692 16.1051 75.9951C16.5639 76.0073 17.0188 75.9077 17.4307 75.7049C17.8425 75.5021 18.199 75.2022 18.4693 74.8309Z" fill="#231F20"/>
<path d="M24.5908 75.6895L25.6377 74.569C26.7224 75.5149 27.7867 76.0242 29.0953 76.0242C30.2295 76.0242 30.907 75.4421 30.6773 74.6126C30.5115 74.0014 29.991 73.6376 28.3858 73.07C26.6584 72.4442 25.4079 71.7457 25.027 70.3341C24.9137 69.9904 24.881 69.6252 24.9315 69.2669C24.9819 68.9085 25.1141 68.5666 25.3178 68.2676C25.847 67.54 26.827 67.1325 28.0775 67.1325C29.6001 67.1213 31.0749 67.6644 32.2273 68.6605L31.3083 69.883C30.3341 69.1262 29.4385 68.7187 28.377 68.7187C27.1847 68.7187 26.6642 69.3736 26.8474 70.0576C27.0306 70.7416 27.6209 71.0326 29.2465 71.6147C30.9681 72.2259 32.1313 72.9245 32.5181 74.3507C32.6326 74.7021 32.6641 75.0752 32.6101 75.4409C32.5561 75.8065 32.4181 76.1547 32.2069 76.4579C31.666 77.2001 30.6569 77.6076 29.4356 77.6076C28.5412 77.6262 27.652 77.4662 26.8202 77.1369C25.9883 76.8075 25.2304 76.3155 24.5908 75.6895Z" fill="#231F20"/>
<path d="M47.0816 67.1907H48.7973L53.3048 77.4504H51.4727L50.4142 75.0026H45.6014L44.5777 77.462H42.6294L47.0816 67.1907ZM49.7657 73.4047L47.9976 69.2863L46.2528 73.4047H49.7657Z" fill="#231F20"/>
<path d="M57.03 67.2634H58.6876L64.0849 74.467V67.2634H65.8443L65.8646 77.4504H64.367L58.801 70.0547L58.8272 77.462H57.0533L57.03 67.2634Z" fill="#231F20"/>
<path d="M70.471 73.2563C70.0377 71.6555 70.2994 70.0984 71.1515 68.9487C72.0035 67.799 73.3267 67.1005 75.1151 67.1005C75.9513 67.0756 76.7836 67.223 77.5604 67.5334C78.3373 67.8439 79.0422 68.3107 79.6313 68.905L78.6019 70.0401C77.7563 69.2067 76.616 68.7412 75.4292 68.7449C74.9206 68.7233 74.4144 68.8259 73.9544 69.044C73.4943 69.2621 73.0942 69.589 72.7887 69.9965C72.4792 70.4624 72.2777 70.9917 72.1987 71.5456C72.1197 72.0995 72.1653 72.6641 72.3321 73.1981C72.5395 74.0086 73.0141 74.7254 73.679 75.2325C74.344 75.7396 75.1604 76.0073 75.9963 75.9922C76.703 76.0189 77.4019 75.8367 78.0057 75.4683L78.0523 73.3291H75.4496V71.7719H79.7826L79.7215 76.6471C78.7257 77.3352 77.5341 77.6823 76.3249 77.6367C73.9403 77.6221 71.2591 76.1669 70.471 73.2563Z" fill="#231F20"/>
<path d="M84.4819 67.2634H91.9585V68.8642H86.2675V71.5274H91.3129V73.1137H86.2966V75.8496H92.0545V77.4504H84.4936L84.4819 67.2634Z" fill="#231F20"/>
<path d="M96.4049 67.2634H98.2196L98.2399 75.8205H103.591V77.4504H96.4282L96.4049 67.2634Z" fill="#231F20"/>
<path d="M107.717 67.2634H115.191V68.8642H109.503V71.5274H114.548V73.1137H109.517V75.8496H115.29V77.4504H107.74L107.717 67.2634Z" fill="#231F20"/>
<path d="M118.896 75.6895L119.946 74.569C121.03 75.5149 122.095 76.0242 123.403 76.0242C124.537 76.0242 125.212 75.4421 124.985 74.6126C124.819 74.0014 124.299 73.6376 122.691 73.07C120.966 72.4442 119.716 71.7457 119.335 70.3341C119.222 69.9904 119.189 69.6252 119.239 69.2669C119.29 68.9085 119.422 68.5666 119.626 68.2676C120.158 67.54 121.138 67.1325 122.388 67.1325C123.911 67.1213 125.386 67.6644 126.538 68.6605L125.619 69.883C124.642 69.1262 123.746 68.7187 122.685 68.7187C121.493 68.7187 120.972 69.3736 121.158 70.0576C121.344 70.7416 121.932 71.0326 123.557 71.6147C125.279 72.226 126.442 72.9245 126.829 74.3507C126.942 74.703 126.973 75.0769 126.918 75.443C126.863 75.809 126.724 76.1574 126.512 76.4608C125.971 77.203 124.962 77.6105 123.741 77.6105C122.846 77.6283 121.957 77.4676 121.125 77.1378C120.293 76.8079 119.535 76.3156 118.896 75.6895Z" fill="#231F20"/>
<path d="M136.769 75.704L137.795 74.6562C138.54 75.5294 139.249 75.9369 140.09 75.9369C140.348 75.9511 140.605 75.9014 140.84 75.7922C141.074 75.6831 141.278 75.5179 141.433 75.3111C141.724 74.9327 141.832 74.438 141.817 73.1864L141.8 67.2634H143.646V73.5939C143.646 75.0637 143.512 75.835 143.006 76.5481C142.5 77.2612 141.605 77.5959 140.456 77.5959C139.739 77.5764 139.036 77.3963 138.398 77.0689C137.76 76.7415 137.203 76.2751 136.769 75.704Z" fill="#231F20"/>
<path d="M148.488 67.2634H155.962V68.8642H150.274V71.5274H155.319V73.1137H150.288V75.8496H156.061V77.4504H148.511L148.488 67.2634Z" fill="#231F20"/>
<path d="M159.379 67.2635H161.24L163.706 74.8309L166.146 67.2489H167.658L170.205 74.8309L172.61 67.2635H174.646L171.127 77.5231H169.484L167.004 70.2904L164.57 77.5231H162.956L159.379 67.2635Z" fill="#231F20"/>
<path d="M178.703 67.2634H186.176V68.8642H180.488V71.5274H185.534V73.1137H180.517V75.8496H186.275V77.4504H178.726L178.703 67.2634Z" fill="#231F20"/>
<path d="M190.626 67.2634H192.44L192.458 75.8205H197.808V77.4504H190.649L190.626 67.2634Z" fill="#231F20"/>
<path d="M201.938 67.2634H209.412V68.8642H203.723V71.5274H208.769V73.1137H203.738V75.8496H209.51V77.4504H201.95L201.938 67.2634Z" fill="#231F20"/>
<path d="M217.793 73.8995H215.67L215.687 77.4504H213.884L213.861 67.2634H217.554C218.979 67.2634 220.07 67.5836 220.904 68.253C221.521 68.7405 221.963 69.4143 222.166 70.174C222.422 71.1199 222.303 71.9203 221.875 72.5024C221.506 73.0118 220.788 73.4775 219.662 73.7249L222.57 77.4504H220.535L217.793 73.8995ZM217.976 72.3133C219.052 72.3133 219.819 72.0222 220.166 71.542C220.288 71.3661 220.368 71.164 220.399 70.9518C220.43 70.7395 220.411 70.523 220.343 70.3195C220.243 69.9516 220.028 69.6254 219.729 69.3881C219.188 69.0265 218.544 68.8526 217.894 68.8934H215.67V72.3133H217.976Z" fill="#231F20"/>
<path d="M228.811 73.4047L224.882 67.2634H226.874L229.646 71.8621L232.429 67.2634H234.639L230.608 73.5939V77.4504H228.82L228.811 73.4047Z" fill="#231F20"/>
</g>
<defs>
<clipPath id="clip0">
<rect width="233.964" height="76.8444" fill="white" transform="translate(0.674988 0.780579)"/>
</clipPath>
</defs>
</svg>
