<svg id="Layer_4_copy" data-name="Layer 4 copy" xmlns="http://www.w3.org/2000/svg" viewBox="0 0 804.54 264.02"><defs><style>.cls-1{fill:#fff;}.cls-2{fill:#231f20;}</style></defs><path class="cls-1" d="M536,531.89,503.52,421.81h0a33.3,33.3,0,0,1,31.93,23.87l32.48,110.08h0A33.29,33.29,0,0,1,536,531.89Zm48-110.08L609.17,507a33.29,33.29,0,0,0,31.93,23.87h0L616,445.68A33.3,33.3,0,0,0,584,421.81Zm-27.23,17h0a33.3,33.3,0,0,0,31.93,23.87h0l-12.06-40.87h-7.16A13.25,13.25,0,0,0,556.8,438.81Zm113.61,81.64h0a33.3,33.3,0,0,0-31.93-23.87h0l12.06,40.87h7.16A13.25,13.25,0,0,0,670.41,520.45ZM585.1,534.3h0a10.34,10.34,0,0,0,9.92,7.41h2.83A10.7,10.7,0,0,0,608.12,528l-5.18-17.55h0A18.6,18.6,0,0,0,585.1,534.3Zm-121.43-2.41,32.49-110.08h0a33.29,33.29,0,0,0-31.93,23.87L431.74,555.76h0A33.28,33.28,0,0,0,463.67,531.89Zm-80.21-1h0l32.18-109.06H390.75L365.61,507A18.61,18.61,0,0,0,383.46,530.87ZM414.69,450h13.24a15.57,15.57,0,0,0,14.94-11.17h0a13.25,13.25,0,0,0-12.71-17H423Zm-7.26,60.45h-4.67A8.05,8.05,0,0,0,395,516.2l-7.53,25.51H394A24.64,24.64,0,0,0,417.6,524h0A10.6,10.6,0,0,0,407.43,510.43Z" transform="translate(-97.57 -367.99)"/><path class="cls-2" d="M431.74,555.76h0l32.49-110.08a33.29,33.29,0,0,1,31.93-23.87h0L463.67,531.89A33.28,33.28,0,0,1,431.74,555.76Zm-48-110.08-25.14,85.19h0A33.28,33.28,0,0,0,390.5,507l25.14-85.19A33.29,33.29,0,0,0,383.71,445.68Zm46.45-23.87H423l-12.06,40.87h0a33.29,33.29,0,0,0,31.93-23.87h0A13.25,13.25,0,0,0,430.16,421.81ZM342,537.45h7.17l12.05-40.87h0a33.29,33.29,0,0,0-31.92,23.87h0A13.24,13.24,0,0,0,342,537.45Zm54.76-27h0L391.55,528a10.7,10.7,0,0,0,10.27,13.73h2.84a10.35,10.35,0,0,0,9.92-7.41h0A18.61,18.61,0,0,0,396.73,510.43Zm171.2,45.33h0L535.45,445.68a33.3,33.3,0,0,0-31.93-23.87h0L536,531.89A33.29,33.29,0,0,0,567.93,555.76ZM634.06,507l-25.14-85.19H584l32.19,109.06h0A18.6,18.6,0,0,0,634.06,507Zm-57.39-85.19h-7.16a13.25,13.25,0,0,0-12.71,17h0A15.59,15.59,0,0,0,571.74,450H585ZM582.07,524h0a24.65,24.65,0,0,0,23.64,17.67h6.46l-7.52-25.51a8.06,8.06,0,0,0-7.73-5.77h-4.67A10.61,10.61,0,0,0,582.07,524Z" transform="translate(-97.57 -367.99)"/><path class="cls-2" d="M426.82,389.49,423,391.84l-.73-1.19,9-5.51.73,1.2-3.85,2.35L434.4,399l-1.31.8Z" transform="translate(-97.57 -367.99)"/><path class="cls-2" d="M444.64,378.56l1.42-.54,2.12,5.58,7.26-2.76-2.13-5.59,1.42-.54,4.79,12.57-1.42.54-2.16-5.65-7.25,2.76,2.16,5.65-1.42.54Z" transform="translate(-97.57 -367.99)"/><path class="cls-2" d="M470,370.56l9.56-1.73.24,1.36-8.06,1.46.81,4.52,7.22-1.31.25,1.36-7.22,1.31.84,4.62,8.16-1.47L482,382l-9.65,1.74Z" transform="translate(-97.57 -367.99)"/><path class="cls-2" d="M512.35,368l1.41.19,7,11.79,1.41-10.68,1.47.19-1.77,13.33-1.2-.16-7.15-12.07-1.45,10.93-1.47-.19Z" transform="translate(-97.57 -367.99)"/><path class="cls-2" d="M539.05,373.13l9.22,3-.43,1.31-7.79-2.56-1.44,4.35,7,2.3-.44,1.31-7-2.3-1.47,4.47,7.87,2.6-.43,1.31-9.32-3.07Z" transform="translate(-97.57 -367.99)"/><path class="cls-2" d="M561.48,381.6l1.43.83L560.57,394l8.86-7.84,1.08.63L568,398.39l9-7.73,1.38.8-11,9.28-1.11-.65,2.32-11.29-8.71,7.56-1.1-.64Z" transform="translate(-97.57 -367.99)"/><path class="cls-2" d="M513.28,479.45a4.77,4.77,0,0,0-4.56-3.41H491a4.78,4.78,0,0,0-4.56,3.41l-2.62,8.89,12.13,17.94a4.76,4.76,0,0,0,7.88,0l12.13-17.94Zm-.83.24,2.4,8.14h-5l-9.14-10.93h8A3.9,3.9,0,0,1,512.45,479.69Zm-15.7,8.14,3.09-9.91,3.09,9.91Zm6.25.87-3.16,16.88-3.16-16.88Zm-7.16-.87H490.9l7.88-9.42Zm0,.87L498.85,505l-8.17-16.29Zm8.08,0H509L500.83,505Zm0-.87-2.94-9.42,7.87,9.42Zm-16.62-8.14A3.92,3.92,0,0,1,491,476.9h8l-9.14,10.93h-4.95Zm9.4,26.1L485.06,488.7h4.65l9.39,18.73A3.8,3.8,0,0,1,496.62,505.79Zm6.44,0a3.85,3.85,0,0,1-2.48,1.64L510,488.7h4.66Z" transform="translate(-97.57 -367.99)"/><path class="cls-2" d="M97.57,596.41h6.2l.06,29.4h18.4l0,5.6H97.64Z" transform="translate(-97.57 -367.99)"/><path class="cls-2" d="M166.66,611.16c1.49,5.5.6,10.9-2.24,14.8-2.65,3.7-7.06,6-12.91,6a20.87,20.87,0,0,1-19.86-15.35c-1.48-5.45-.65-10.9,2.24-14.8,2.65-3.7,7-6.05,12.86-6.05A20.87,20.87,0,0,1,166.66,611.16Zm-7.9,11.25a13.69,13.69,0,0,0-11.08-20.95,9.74,9.74,0,0,0-8.13,3.95,13.7,13.7,0,0,0,11.08,21A9.74,9.74,0,0,0,158.76,622.41Z" transform="translate(-97.57 -367.99)"/><path class="cls-2" d="M179.81,625.36l3.6-3.85c3.73,3.25,7.39,5,11.89,5,3.9,0,6.23-2,5.44-4.85-.57-2.1-2.36-3.35-7.88-5.3-5.94-2.15-10.24-4.55-11.55-9.4a8.1,8.1,0,0,1,1-7.1c1.82-2.5,5.19-3.9,9.49-3.9a21.59,21.59,0,0,1,14.27,5.25l-3.16,4.2c-3.35-2.6-6.43-4-10.08-4-4.1,0-5.89,2.25-5.26,4.6s2.66,3.35,8.25,5.35c5.92,2.1,9.92,4.5,11.25,9.4A8.21,8.21,0,0,1,206,628c-1.86,2.55-5.33,3.95-9.53,3.95A23.14,23.14,0,0,1,179.81,625.36Z" transform="translate(-97.57 -367.99)"/><path class="cls-2" d="M257.15,596.16h5.9l15.5,35.25h-6.3L268.61,623H252.06l-3.52,8.45h-6.7Zm9.23,21.35-6.08-14.15-6,14.15Z" transform="translate(-97.57 -367.99)"/><path class="cls-2" d="M291.36,596.41h5.7l18.56,24.75V596.41h6.05l.07,35h-5.15L297.45,606l.09,25.45h-6.1Z" transform="translate(-97.57 -367.99)"/><path class="cls-2" d="M337.58,617c-1.49-5.5-.59-10.85,2.34-14.8s7.48-6.35,13.63-6.35a21,21,0,0,1,15.53,6.2l-3.54,3.9a15.48,15.48,0,0,0-10.91-4.45,10.78,10.78,0,0,0-9.08,4.3,12.91,12.91,0,0,0-1.57,11,12.77,12.77,0,0,0,12.6,9.6,12.38,12.38,0,0,0,6.91-1.8l.16-7.35H354.7v-5.35h14.9l-.21,16.75a19.28,19.28,0,0,1-11.68,3.4C349.51,632,340.29,627,337.58,617Z" transform="translate(-97.57 -367.99)"/><path class="cls-2" d="M385.76,596.41h25.71l0,5.5H391.9l0,9.15h17.35l0,5.45H392v9.4H411.8v5.5h-26Z" transform="translate(-97.57 -367.99)"/><path class="cls-2" d="M426.76,596.41H433l.07,29.4h18.4l0,5.6H426.84Z" transform="translate(-97.57 -367.99)"/><path class="cls-2" d="M465.66,596.41h25.7v5.5H471.8l0,9.15h17.35l0,5.45h-17.3v9.4H491.7v5.5H465.74Z" transform="translate(-97.57 -367.99)"/><path class="cls-2" d="M504.1,625.36l3.61-3.85c3.73,3.25,7.39,5,11.89,5,3.9,0,6.22-2,5.44-4.85-.57-2.1-2.36-3.35-7.89-5.3-5.93-2.15-10.23-4.55-11.54-9.4a8.1,8.1,0,0,1,1-7.1c1.83-2.5,5.2-3.9,9.5-3.9a21.59,21.59,0,0,1,14.27,5.25l-3.16,4.2c-3.36-2.6-6.44-4-10.09-4-4.1,0-5.89,2.25-5.25,4.6s2.66,3.35,8.25,5.35c5.92,2.1,9.92,4.5,11.25,9.4a8.24,8.24,0,0,1-1.09,7.25c-1.86,2.55-5.33,3.95-9.53,3.95A23.17,23.17,0,0,1,504.1,625.36Z" transform="translate(-97.57 -367.99)"/><path class="cls-2" d="M565.56,625.41l3.53-3.6c2.56,3,5,4.4,7.89,4.4a5.41,5.41,0,0,0,4.62-2.15c1-1.3,1.37-3,1.32-7.3l-.06-20.35h6.35l0,21.75c0,5.05-.46,7.7-2.2,10.15s-4.82,3.6-8.77,3.6A16.5,16.5,0,0,1,565.56,625.41Z" transform="translate(-97.57 -367.99)"/><path class="cls-2" d="M605.86,596.41h25.7v5.5H612l0,9.15h17.35l0,5.45H612.05v9.4H631.9v5.5H605.94Z" transform="translate(-97.57 -367.99)"/><path class="cls-2" d="M643.31,596.41h6.4l8.48,26,8.39-26.05h5.2l8.76,26.05,8.27-26h7l-12.1,35.25h-5.65l-8.53-24.85-8.37,24.85h-5.55Z" transform="translate(-97.57 -367.99)"/><path class="cls-2" d="M709.76,596.41h25.7v5.5H715.9l0,9.15h17.35l0,5.45H716v9.4H735.8v5.5H709.84Z" transform="translate(-97.57 -367.99)"/><path class="cls-2" d="M750.76,596.41H757l.06,29.4h18.4l0,5.6H750.84Z" transform="translate(-97.57 -367.99)"/><path class="cls-2" d="M789.66,596.41h25.7v5.5H795.8l0,9.15h17.35l0,5.45h-17.3v9.4H815.7v5.5h-26Z" transform="translate(-97.57 -367.99)"/><path class="cls-2" d="M844.18,619.21h-7.3l.06,12.2h-6.2l-.08-35h12.7c4.9,0,8.65,1.1,11.52,3.4a12.54,12.54,0,0,1,4.34,6.6c.88,3.25.47,6-1,8-1.27,1.75-3.74,3.35-7.61,4.2l10,12.8h-7Zm.63-5.45c3.7,0,6.34-1,7.53-2.65a4.73,4.73,0,0,0,.61-4.2,6.16,6.16,0,0,0-2.11-3.2,10.21,10.21,0,0,0-6.31-1.7h-7.65l0,11.75Z" transform="translate(-97.57 -367.99)"/><path class="cls-2" d="M882.07,617.51l-13.51-21.1h6.85l9.53,15.8,9.57-15.8h7.6l-13.86,21.75,0,13.25h-6.15Z" transform="translate(-97.57 -367.99)"/></svg>