<svg id="Layer_4" data-name="Layer 4" xmlns="http://www.w3.org/2000/svg" viewBox="0 0 790 573.95"><defs><style>.cls-1{fill:#fff;}.cls-2{fill:#231f20;}.cls-3{fill:none;stroke:#231f20;stroke-miterlimit:10;stroke-width:2px;}</style></defs><path class="cls-1" d="M583.48,596.52l-75-254.1h0a76.85,76.85,0,0,1,73.7,55.1l75,254.1h0A76.85,76.85,0,0,1,583.48,596.52Zm110.87-254.1,58,196.65a76.84,76.84,0,0,0,73.7,55.1h0l-58-196.65A76.85,76.85,0,0,0,694.35,342.42Zm-62.86,39.24h0a76.85,76.85,0,0,0,73.7,55.1h0l-27.83-94.34H660.82A30.59,30.59,0,0,0,631.49,381.66ZM893.73,570.11h0A76.85,76.85,0,0,0,820,515h0l27.83,94.34H864.4A30.58,30.58,0,0,0,893.73,570.11Zm-196.92,32h0a23.86,23.86,0,0,0,22.9,17.12h6.54a24.71,24.71,0,0,0,23.7-31.7L738,547h0A43,43,0,0,0,696.81,602.07Zm-280.29-5.55,75-254.1h0a76.85,76.85,0,0,0-73.7,55.1l-75,254.1h0A76.85,76.85,0,0,0,416.52,596.52Zm-185.16-2.35h0l74.29-251.74H248.2l-58,196.64A43,43,0,0,0,231.36,594.17Zm72.09-186.73H334a35.93,35.93,0,0,0,34.48-25.78h0a30.57,30.57,0,0,0-29.33-39.23H322.64ZM286.69,547H275.91a18.59,18.59,0,0,0-17.84,13.34L240.7,619.19h14.91a56.9,56.9,0,0,0,54.57-40.79h0A24.5,24.5,0,0,0,286.69,547Z" transform="translate(-105 -218.19)"/><path class="cls-2" d="M342.82,651.62h0l75-254.1a76.85,76.85,0,0,1,73.7-55.1h0l-75,254.1A76.85,76.85,0,0,1,342.82,651.62ZM231.94,397.52l-58,196.65h0a76.84,76.84,0,0,0,73.7-55.1l58-196.65A76.85,76.85,0,0,0,231.94,397.52Zm107.24-55.1H322.64l-27.83,94.34h0a76.85,76.85,0,0,0,73.7-55.1h0A30.59,30.59,0,0,0,339.18,342.42ZM135.6,609.35h16.54L180,515h0a76.85,76.85,0,0,0-73.7,55.1h0A30.58,30.58,0,0,0,135.6,609.35ZM262,547h0l-11.95,40.52a24.71,24.71,0,0,0,23.7,31.7h6.54a23.86,23.86,0,0,0,22.9-17.12h0A43,43,0,0,0,262,547ZM657.18,651.62h0l-75-254.1a76.85,76.85,0,0,0-73.7-55.1h0l75,254.1A76.85,76.85,0,0,0,657.18,651.62ZM809.83,539.07l-58-196.64H694.35l74.29,251.74h0A43,43,0,0,0,809.83,539.07ZM677.36,342.43H660.83a30.57,30.57,0,0,0-29.33,39.23h0A35.93,35.93,0,0,0,666,407.44h30.57Zm12.46,236h0a56.9,56.9,0,0,0,54.57,40.79H759.3l-17.37-58.88A18.59,18.59,0,0,0,724.09,547H713.31A24.5,24.5,0,0,0,689.82,578.4Z" transform="translate(-105 -218.19)"/><path class="cls-2" d="M331.44,267.82l-8.89,5.43-1.68-2.77,20.8-12.7,1.69,2.76L334.47,266,349,289.69l-3,1.85Z" transform="translate(-105 -218.19)"/><path class="cls-2" d="M372.58,242.58l3.28-1.24,4.91,12.88,16.74-6.38L392.6,235l3.27-1.24,11.06,29L403.66,264l-5-13-16.74,6.38,5,13-3.27,1.25Z" transform="translate(-105 -218.19)"/><path class="cls-2" d="M431.1,224.12l22.06-4,.57,3.14-18.62,3.37L437,237.06l16.65-3,.57,3.14-16.65,3,1.93,10.68,18.84-3.41.57,3.14-22.29,4Z" transform="translate(-105 -218.19)"/><path class="cls-2" d="M528.88,218.19l3.25.43,16.12,27.21,3.26-24.65,3.38.45-4.07,30.76-2.77-.37-16.52-27.85-3.34,25.23-3.38-.45Z" transform="translate(-105 -218.19)"/><path class="cls-2" d="M590.5,230.05l21.29,7-1,3-18-5.93-3.32,10.06,16.07,5.3-1,3-16.07-5.3-3.4,10.31,18.17,6-1,3-21.5-7.09Z" transform="translate(-105 -218.19)"/><path class="cls-2" d="M642.29,249.59l3.29,1.93-5.38,26.8,20.44-18.11,2.49,1.46-5.74,26.7,20.71-17.86,3.17,1.86-25.34,21.41-2.57-1.5,5.36-26-20.1,17.43-2.53-1.47Z" transform="translate(-105 -218.19)"/><path class="cls-2" d="M268.5,682.6l3.23-.18c.09,4.19,1.11,7.33,3.94,10.33s6.1,3.38,8.24,1.36l.06-.05c2-1.9,2.14-4.07-1.19-9.53-3.61-6-4.16-9.82-.6-13.18l.06-.06c3.41-3.21,8.75-2.57,12.64,1.55A15.56,15.56,0,0,1,299.4,683l-3.24.35a13.05,13.05,0,0,0-3.54-8.47c-2.66-2.83-5.9-3.16-7.85-1.33l-.07.06c-2,1.93-2.14,4.13,1.34,9.86s3.83,9.73.52,12.85l-.06.06c-3.72,3.5-9.06,2.68-13.12-1.63A17.45,17.45,0,0,1,268.5,682.6Z" transform="translate(-105 -218.19)"/><path class="cls-2" d="M327.77,703.3l2.67,2L312.34,729l-2.67-2Z" transform="translate(-105 -218.19)"/><path class="cls-2" d="M359.66,725l2.79,1.45,5.69,29.84,11-21.21,2.91,1.51-13.71,26.46L366,761.84l-5.85-30.55L348.87,753,346,751.48Z" transform="translate(-105 -218.19)"/><path class="cls-2" d="M409.51,763.36l0-.09c2.22-8.13,10.14-13.2,18.6-10.89a15.47,15.47,0,0,1,10,7.62l-2.86,1.78c-1.8-3-4.06-5.35-8-6.41-6.37-1.74-12.54,2.13-14.35,8.74l0,.08c-1.82,6.65,1.56,13.18,7.89,14.91,3.94,1.08,6.94.26,10.41-1.61l1.56,2.67c-3.83,2.23-7.66,3.34-12.87,1.91C411.59,779.81,407.25,771.61,409.51,763.36Z" transform="translate(-105 -218.19)"/><path class="cls-2" d="M471.53,761l21.5,1.43-.2,3.06-18.15-1.21L474,774.39l16.23,1.07-.2,3.07-16.23-1.08-.69,10.41,18.36,1.21-.21,3.07-21.71-1.44Z" transform="translate(-105 -218.19)"/><path class="cls-2" d="M569,757.27l-5,3-1.44-2.45,6.47-4.18,2.4-.59,7.16,29.16-3.22.79Z" transform="translate(-105 -218.19)"/><path class="cls-2" d="M626.43,749.26l-.23-.55a9.59,9.59,0,0,1-5.84,7.71c-5.62,2.45-11.07.61-13.22-4.31l0-.08c-2.26-5.19,0-11,5.78-13.58a10.56,10.56,0,0,1,8.41-.33c3,1.17,5.63,3.63,8,9.09l0,.08c3.78,8.67,1.85,16.81-4.9,19.75a13.79,13.79,0,0,1-9.89.33l.75-3.17c3.08,1,5.57,1.06,8,0C628.56,761.9,629,755.15,626.43,749.26Zm-2.78-4.78,0-.08c-1.51-3.47-5.55-5-9.65-3.17a6.85,6.85,0,0,0-3.76,9.27l0,.07c1.52,3.48,5.34,4.78,9.32,3C623.73,751.79,625,747.6,623.65,744.48Z" transform="translate(-105 -218.19)"/><path class="cls-2" d="M660.06,731.17l0-.07c-4.78-6.85-4.73-15.5,1.56-19.88s14.27-1.42,19,5.42l0,.08c4.77,6.85,4.76,15.47-1.53,19.85S664.84,738,660.06,731.17Zm17.79-12.39-.05-.07c-3.72-5.35-10-8.09-14.54-4.92s-4.18,9.87-.43,15.25l0,.07c3.73,5.34,10,8.09,14.58,4.9S681.58,724.13,677.85,718.78Z" transform="translate(-105 -218.19)"/><path class="cls-2" d="M707.2,694.06l-.06-.06c-6-5.75-7.72-14.23-2.44-19.78s13.69-4.25,19.73,1.5l.07.06c6,5.76,7.75,14.21,2.46,19.76S713.25,699.82,707.2,694.06Zm14.95-15.69-.06-.06c-4.72-4.49-11.41-5.92-15.23-1.91s-2.12,10.49,2.63,15l.06.06c4.72,4.49,11.41,5.92,15.25,1.88S726.87,682.86,722.15,678.37Z" transform="translate(-105 -218.19)"/><path class="cls-3" d="M536,495.83l-27.74,41a10,10,0,0,1-16.52,0l-27.74-41,5.92-20.09a10,10,0,0,1,9.57-7.15h41a10,10,0,0,1,9.57,7.15Z" transform="translate(-105 -218.19)"/><line class="cls-3" x1="359" y1="277.64" x2="430.1" y2="277.64"/><polyline class="cls-3" points="395 250.4 417.76 277.64 395 323.04"/><path class="cls-3" d="M499.55,468.59" transform="translate(-105 -218.19)"/><path class="cls-3" d="M500,468.59l8.49,27.24L500,541.23" transform="translate(-105 -218.19)"/><polyline class="cls-3" points="395 250.4 372.24 277.64 395 323.04"/><path class="cls-3" d="M500,468.59l-8.49,27.24,8.49,45.4" transform="translate(-105 -218.19)"/></svg>