<svg id="Layer_4" data-name="Layer 4" xmlns="http://www.w3.org/2000/svg" viewBox="0 0 790 531.46"><defs><style>.cls-1{fill:#fff;}.cls-2{fill:#231f20;}.cls-3{fill:none;stroke:#231f20;stroke-miterlimit:10;stroke-width:2px;}</style></defs><path class="cls-1" d="M583.48,596.52l-75-254.1h0a76.85,76.85,0,0,1,73.7,55.1l75,254.1h0A76.85,76.85,0,0,1,583.48,596.52Zm110.87-254.1,58,196.65a76.84,76.84,0,0,0,73.7,55.1h0l-58-196.65A76.85,76.85,0,0,0,694.35,342.42Zm-62.86,39.24h0a76.85,76.85,0,0,0,73.7,55.1h0l-27.83-94.34H660.82A30.59,30.59,0,0,0,631.49,381.66ZM893.73,570.11h0A76.85,76.85,0,0,0,820,515h0l27.83,94.34H864.4A30.58,30.58,0,0,0,893.73,570.11Zm-196.92,32h0a23.86,23.86,0,0,0,22.9,17.12h6.54a24.71,24.71,0,0,0,23.7-31.7L738,547h0A43,43,0,0,0,696.81,602.07Zm-280.29-5.55,75-254.1h0a76.85,76.85,0,0,0-73.7,55.1l-75,254.1h0A76.85,76.85,0,0,0,416.52,596.52Zm-185.16-2.35h0l74.29-251.74H248.2l-58,196.64A43,43,0,0,0,231.36,594.17Zm72.09-186.73H334a35.93,35.93,0,0,0,34.48-25.78h0a30.57,30.57,0,0,0-29.33-39.23H322.64ZM286.69,547H275.91a18.59,18.59,0,0,0-17.84,13.34L240.7,619.19h14.91a56.9,56.9,0,0,0,54.57-40.79h0A24.5,24.5,0,0,0,286.69,547Z" transform="translate(-105 -234.91)"/><path class="cls-2" d="M342.82,651.62h0l75-254.1a76.85,76.85,0,0,1,73.7-55.1h0l-75,254.1A76.85,76.85,0,0,1,342.82,651.62ZM231.94,397.52l-58,196.65h0a76.84,76.84,0,0,0,73.7-55.1l58-196.65A76.85,76.85,0,0,0,231.94,397.52Zm107.24-55.1H322.64l-27.83,94.34h0a76.85,76.85,0,0,0,73.7-55.1h0A30.59,30.59,0,0,0,339.18,342.42ZM135.6,609.35h16.54L180,515h0a76.85,76.85,0,0,0-73.7,55.1h0A30.58,30.58,0,0,0,135.6,609.35ZM262,547h0l-11.95,40.52a24.71,24.71,0,0,0,23.7,31.7h6.54a23.86,23.86,0,0,0,22.9-17.12h0A43,43,0,0,0,262,547ZM657.18,651.62h0l-75-254.1a76.85,76.85,0,0,0-73.7-55.1h0l75,254.1A76.85,76.85,0,0,0,657.18,651.62ZM809.83,539.07l-58-196.64H694.35l74.29,251.74h0A43,43,0,0,0,809.83,539.07ZM677.36,342.43H660.83a30.57,30.57,0,0,0-29.33,39.23h0A35.93,35.93,0,0,0,666,407.44h30.57Zm12.46,236h0a56.9,56.9,0,0,0,54.57,40.79H759.3l-17.37-58.88A18.59,18.59,0,0,0,724.09,547H713.31A24.5,24.5,0,0,0,689.82,578.4Z" transform="translate(-105 -234.91)"/><path class="cls-2" d="M406.49,262.58l-5,3-.94-1.54,11.6-7.09.94,1.55-4.95,3,8.07,13.23-1.69,1Z" transform="translate(-105 -234.91)"/><path class="cls-2" d="M429.43,248.51l1.82-.69L434,255l9.34-3.56-2.74-7.18,1.82-.7,6.17,16.18-1.83.69L444,253.15l-9.33,3.56,2.77,7.28-1.83.69Z" transform="translate(-105 -234.91)"/><path class="cls-2" d="M462.05,238.22,474.36,236l.31,1.75-10.38,1.88,1,5.81,9.29-1.68.32,1.75-9.29,1.68,1.08,6,10.5-1.9.32,1.75-12.42,2.25Z" transform="translate(-105 -234.91)"/><path class="cls-2" d="M516.58,234.91l1.81.24,9,15.17,1.82-13.74,1.89.25L528.81,254l-1.54-.2-9.22-15.54-1.86,14.07-1.88-.25Z" transform="translate(-105 -234.91)"/><path class="cls-2" d="M550.94,241.52l11.87,3.92-.56,1.69-10-3.31-1.85,5.61,9,3-.55,1.69-9-3-1.9,5.75,10.13,3.34-.55,1.69-12-4Z" transform="translate(-105 -234.91)"/><path class="cls-2" d="M579.81,252.42l1.84,1.07-3,14.95,11.4-10.1,1.39.81L588.23,274l11.55-10,1.77,1-14.14,11.94-1.43-.84,3-14.52-11.21,9.72-1.41-.83Z" transform="translate(-105 -234.91)"/><path class="cls-2" d="M365.32,702.77l1.88-.1a8.27,8.27,0,0,0,2.28,6c1.6,1.69,3.55,2,4.79.79l0,0c1.17-1.11,1.25-2.36-.69-5.53-2.1-3.49-2.42-5.71-.35-7.66l0,0c2-1.86,5.08-1.49,7.33.9a9.05,9.05,0,0,1,2.63,5.88l-1.88.21a7.59,7.59,0,0,0-2.06-4.92c-1.54-1.64-3.42-1.83-4.56-.77l0,0c-1.19,1.12-1.25,2.39.77,5.72s2.23,5.65.3,7.46l0,0c-2.16,2-5.26,1.56-7.62-.94A10.16,10.16,0,0,1,365.32,702.77Z" transform="translate(-105 -234.91)"/><path class="cls-2" d="M399.73,714.79l1.55,1.19-10.51,13.75-1.55-1.18Z" transform="translate(-105 -234.91)"/><path class="cls-2" d="M418.24,727.4l1.62.84,3.31,17.33,6.37-12.31,1.69.87-8,15.36-1.39-.71L418.5,731,412,743.64l-1.69-.88Z" transform="translate(-105 -234.91)"/><path class="cls-2" d="M447.18,749.66v0a8.72,8.72,0,0,1,10.8-6.33,9,9,0,0,1,5.78,4.43l-1.66,1a7.53,7.53,0,0,0-4.62-3.72,6.78,6.78,0,0,0-8.33,5.07v0a6.83,6.83,0,0,0,4.58,8.66,7.52,7.52,0,0,0,6-.94l.91,1.55a9,9,0,0,1-7.48,1.11A8.62,8.62,0,0,1,447.18,749.66Z" transform="translate(-105 -234.91)"/><path class="cls-2" d="M483.18,748.26l12.49.83-.12,1.77L485,750.17l-.39,5.89,9.43.62-.12,1.78-9.42-.62-.4,6,10.65.71-.12,1.77-12.6-.83Z" transform="translate(-105 -234.91)"/><path class="cls-2" d="M539.76,746.12l-2.93,1.76-.83-1.42,3.76-2.42,1.39-.35,4.16,16.93-1.88.46Z" transform="translate(-105 -234.91)"/><path class="cls-2" d="M573.11,741.47l-.14-.31a5.56,5.56,0,0,1-3.39,4.47c-3.26,1.42-6.43.35-7.67-2.5l0,0a5.89,5.89,0,0,1,3.35-7.88,6.1,6.1,0,0,1,4.88-.19c1.73.67,3.27,2.1,4.66,5.28l0,0c2.19,5,1.07,9.76-2.85,11.47a8,8,0,0,1-5.74.18l.44-1.83a6.28,6.28,0,0,0,4.64,0C574.34,748.81,574.6,744.89,573.11,741.47Zm-1.62-2.77,0-.05c-.88-2-3.23-2.88-5.6-1.84a4,4,0,0,0-2.19,5.38l0,0c.88,2,3.1,2.77,5.41,1.76A4.06,4.06,0,0,0,571.49,738.7Z" transform="translate(-105 -234.91)"/><path class="cls-2" d="M592.63,731l0,0c-2.77-4-2.74-9,.91-11.54s8.28-.83,11.06,3.15l0,0c2.77,4,2.77,9-.89,11.53S595.4,735,592.63,731ZM603,723.78l0,0c-2.16-3.11-5.8-4.7-8.44-2.86s-2.43,5.73-.25,8.85l0,0c2.16,3.11,5.8,4.7,8.46,2.85S605.12,726.88,603,723.78Z" transform="translate(-105 -234.91)"/><path class="cls-2" d="M620,709.43l0,0c-3.51-3.35-4.48-8.27-1.42-11.49s8-2.47,11.46.87l0,0c3.51,3.34,4.51,8.25,1.44,11.47S623.5,712.77,620,709.43Zm8.67-9.11,0,0c-2.74-2.61-6.63-3.44-8.84-1.12s-1.23,6.1,1.52,8.72l0,0c2.74,2.61,6.62,3.44,8.85,1.09S631.41,702.93,628.67,700.32Z" transform="translate(-105 -234.91)"/><path class="cls-3" d="M536,495.83l-27.74,41a10,10,0,0,1-16.52,0l-27.74-41,5.92-20.09a10,10,0,0,1,9.57-7.15h41a10,10,0,0,1,9.57,7.15Z" transform="translate(-105 -234.91)"/><line class="cls-3" x1="359" y1="260.92" x2="430.1" y2="260.92"/><polyline class="cls-3" points="395 233.68 417.76 260.92 395 306.32"/><path class="cls-3" d="M499.55,468.59" transform="translate(-105 -234.91)"/><path class="cls-3" d="M500,468.59l8.49,27.24L500,541.23" transform="translate(-105 -234.91)"/><polyline class="cls-3" points="395 233.68 372.24 260.92 395 306.32"/><path class="cls-3" d="M500,468.59l-8.49,27.24,8.49,45.4" transform="translate(-105 -234.91)"/></svg>