<svg id="Layer_4" data-name="Layer 4" xmlns="http://www.w3.org/2000/svg" viewBox="0 0 790 433.43"><defs><style>.cls-1{fill:#fff;}.cls-2{fill:#231f20;}</style></defs><path class="cls-1" d="M583.48,596.52l-75-254.1h0a76.85,76.85,0,0,1,73.7,55.1l75,254.1h0A76.85,76.85,0,0,1,583.48,596.52Zm110.87-254.1,58,196.65a76.84,76.84,0,0,0,73.7,55.1h0l-58-196.65A76.85,76.85,0,0,0,694.35,342.42Zm-62.86,39.24h0a76.85,76.85,0,0,0,73.7,55.1h0l-27.83-94.34H660.82A30.59,30.59,0,0,0,631.49,381.66ZM893.73,570.11h0A76.85,76.85,0,0,0,820,515h0l27.83,94.34H864.4A30.58,30.58,0,0,0,893.73,570.11Zm-196.92,32h0a23.86,23.86,0,0,0,22.9,17.12h6.54a24.71,24.71,0,0,0,23.7-31.7L738,547h0A43,43,0,0,0,696.81,602.07Zm-280.29-5.55,75-254.1h0a76.85,76.85,0,0,0-73.7,55.1l-75,254.1h0A76.85,76.85,0,0,0,416.52,596.52Zm-185.16-2.35h0l74.29-251.74H248.2l-58,196.64A43,43,0,0,0,231.36,594.17Zm72.09-186.73H334a35.93,35.93,0,0,0,34.48-25.78h0a30.57,30.57,0,0,0-29.33-39.23H322.64ZM286.69,547H275.91a18.59,18.59,0,0,0-17.84,13.34L240.7,619.19h14.91a56.9,56.9,0,0,0,54.57-40.79h0A24.5,24.5,0,0,0,286.69,547Z" transform="translate(-105 -218.19)"/><path class="cls-2" d="M342.82,651.62h0l75-254.1a76.85,76.85,0,0,1,73.7-55.1h0l-75,254.1A76.85,76.85,0,0,1,342.82,651.62ZM231.94,397.52l-58,196.65h0a76.84,76.84,0,0,0,73.7-55.1l58-196.65A76.85,76.85,0,0,0,231.94,397.52Zm107.24-55.1H322.64l-27.83,94.34h0a76.85,76.85,0,0,0,73.7-55.1h0A30.59,30.59,0,0,0,339.18,342.42ZM135.6,609.35h16.54L180,515h0a76.85,76.85,0,0,0-73.7,55.1h0A30.58,30.58,0,0,0,135.6,609.35ZM262,547h0l-11.95,40.52a24.71,24.71,0,0,0,23.7,31.7h6.54a23.86,23.86,0,0,0,22.9-17.12h0A43,43,0,0,0,262,547ZM657.18,651.62h0l-75-254.1a76.85,76.85,0,0,0-73.7-55.1h0l75,254.1A76.85,76.85,0,0,0,657.18,651.62ZM809.83,539.07l-58-196.64H694.35l74.29,251.74h0A43,43,0,0,0,809.83,539.07ZM677.36,342.43H660.83a30.57,30.57,0,0,0-29.33,39.23h0A35.93,35.93,0,0,0,666,407.44h30.57Zm12.46,236h0a56.9,56.9,0,0,0,54.57,40.79H759.3l-17.37-58.88A18.59,18.59,0,0,0,724.09,547H713.31A24.5,24.5,0,0,0,689.82,578.4Z" transform="translate(-105 -218.19)"/><path class="cls-2" d="M331.44,267.82l-8.89,5.43-1.68-2.77,20.8-12.7,1.69,2.76L334.47,266,349,289.69l-3,1.85Z" transform="translate(-105 -218.19)"/><path class="cls-2" d="M372.58,242.58l3.28-1.24,4.91,12.88,16.74-6.38L392.6,235l3.27-1.24,11.06,29L403.66,264l-5-13-16.74,6.38,5,13-3.27,1.25Z" transform="translate(-105 -218.19)"/><path class="cls-2" d="M431.1,224.12l22.06-4,.57,3.14-18.62,3.37L437,237.06l16.65-3,.57,3.14-16.65,3,1.93,10.68,18.84-3.41.57,3.14-22.29,4Z" transform="translate(-105 -218.19)"/><path class="cls-2" d="M528.88,218.19l3.25.43,16.12,27.21,3.26-24.65,3.38.45-4.07,30.76-2.77-.37-16.52-27.85-3.34,25.23-3.38-.45Z" transform="translate(-105 -218.19)"/><path class="cls-2" d="M590.5,230.05l21.29,7-1,3-18-5.93-3.32,10.06,16.07,5.3-1,3-16.07-5.3-3.4,10.31,18.17,6-1,3-21.5-7.09Z" transform="translate(-105 -218.19)"/><path class="cls-2" d="M642.29,249.59l3.29,1.93-5.38,26.8,20.44-18.11,2.49,1.46-5.74,26.7,20.71-17.86,3.17,1.86-25.34,21.41-2.57-1.5,5.36-26-20.1,17.43-2.53-1.47Z" transform="translate(-105 -218.19)"/><path class="cls-2" d="M531,475.46a11.05,11.05,0,0,0-10.53-7.87h-41A11.05,11.05,0,0,0,469,475.46l-6,20.54,28,41.4a11,11,0,0,0,18.18,0l28-41.4Zm-1.92.57,5.54,18.8H523.23l-21.09-25.24h18.37A9,9,0,0,1,529.12,476Zm-36.26,18.8L500,472l7.14,22.88Zm14.43,2-7.29,39-7.29-39Zm-16.52-2H479.38l18.17-21.75Zm-.1,2,7,37.6-18.85-37.6Zm18.66,0h11.81l-18.85,37.6Zm-.1-2-6.78-21.75,18.17,21.75ZM470.88,476a9,9,0,0,1,8.61-6.44h18.37l-21.09,25.24H465.34Zm21.69,60.25-26.69-39.45h10.74l21.67,43.22A8.8,8.8,0,0,1,492.57,536.28Zm14.86,0a8.8,8.8,0,0,1-5.72,3.77l21.67-43.22h10.74Z" transform="translate(-105 -218.19)"/></svg>